<svg width="1920" height="1080" viewBox="0 0 1920 1080" fill="none" xmlns="http://www.w3.org/2000/svg">
<g id="BG-Animation">
<path id="bottomBar" d="M0 1080H1920L0 880V1080Z" fill="#731B43"/>
<g id="backLayer">
<mask id="mask0" style="mask-type:alpha" maskUnits="userSpaceOnUse" x="0" y="880" width="1920" height="200">
<path id="backMask" d="M0 942L1920 880V1080H0V942Z" fill="#C4C4C4"/>
</mask>
<g mask="url(#mask0)">
<g id="backLayerMain">
<path id="em5RMJYNCX732" d="M7363.54 -232.609C7093.52 -250.106 6929.53 -481.661 6718.27 -638.947C6493.62 -805.255 6208.2 -821.02 5963.31 -710.847C5637.54 -567.047 5475.74 -250.106 5318.5 51.0706C5163.45 347.782 4873.65 541.064 4547.87 628.637C4354.65 682.585 4341.16 911.862 4251.25 1069.15C4228.75 1105.14 4192.85 1136.58 4150.13 1127.56C4089.45 1114.07 4069.23 1048.92 4051.28 997.248C3974.85 754.484 4010.83 480.282 3835.55 273.513C3799.57 228.587 3756.93 197.057 3707.46 170.083C3208.68 -104.119 2723.39 -306.423 2154.92 -412.039C2044.86 -432.27 1979.64 -515.469 1898.74 -587.369C1714.53 -749.211 1444.87 -746.933 1226.96 -661.547C757.33 -481.752 568.659 32.9363 570.845 500.421C570.845 572.32 516.914 644.22 436.016 628.546C319.224 603.85 236.048 525.207 157.428 444.286C-125.533 163.431 -401.934 -166.997 -811.799 -228.6C-872.837 -230.969 -905.178 -230.969 -905.178 -230.969V-292.116C-905.178 -292.116 -872.837 -291.933 -811.617 -288.744C-404.121 -216.389 -129.997 111.762 155.332 392.708C233.953 469.164 321.592 561.294 436.198 556.738C514.818 554.459 539.598 462.329 544.062 397.173C566.564 12.8883 696.839 -369.21 1040.65 -602.952C1310.31 -785.025 1658.5 -850.181 1923.7 -650.156C2053.97 -551.282 2157.37 -452.409 2323.63 -418.692C2575.26 -369.21 2802.19 -301.866 3031.4 -202.902C3260.61 -104.028 3471.78 15.0754 3696.44 122.97C3766.13 156.688 3828.99 199.426 3876.18 264.583C4019.94 462.329 4001.99 693.885 4071.69 911.862C4085.17 952.322 4100.93 1008.55 4150.31 1010.74C4179.55 1013.01 4199.78 988.227 4217.72 963.531C4318.84 808.432 4341.26 588.177 4523.28 516.277C5037.82 570.224 5278.23 42.049 5502.89 -342.236C5678.17 -636.669 5997.2 -834.416 6340.93 -814.185C6617.33 -798.42 6817.3 -607.417 7030.75 -441.109C7129.59 -362.466 7237.46 -301.775 7364 -294.941L7363.54 -232.609ZM7363.18 -101.295C7241.83 -95.0981 7129.5 -144.58 7037.31 -220.945C6839.62 -382.788 6702.51 -607.508 6450.89 -683.964C6077.92 -796.325 5689.19 -546.908 5552.17 -209.736C5367.97 248.726 4983.7 518.464 4588.32 808.341C4491.66 878.053 4473.72 994.879 4431.08 1100.5C4386.17 1208.39 4276.03 1309.54 4163.7 1289.31C4028.87 1262.34 4004.18 1093.75 3977.21 963.44C3930.02 720.676 3959.27 444.286 3736.8 291.465C3206.59 -77.1459 2651.6 -223.223 2031.47 -328.84C1914.68 -349.071 1844.99 -441.201 1750.61 -510.913C1618.05 -607.599 1463 -616.53 1305.76 -587.369C1013.69 -533.422 811.443 -299.679 712.598 -34.4982C633.978 174.548 663.13 394.804 654.202 610.503C649.738 664.45 640.719 734.072 586.787 756.58C463.254 808.249 348.648 709.376 256.545 633.011C-82.7166 349.787 -350.099 -59.1939 -811.983 -100.292C-872.747 -101.112 -905.088 -101.112 -905.088 -101.112V-162.259C-905.088 -162.259 -872.747 -162.259 -811.892 -160.801C-574.846 -140.115 -377.065 -0.781067 -192.858 152.04C38.5392 343.043 180.111 637.476 490.22 702.633C571.118 720.585 616.031 635.198 613.753 565.577C602.548 143.018 694.651 -317.723 1096.86 -555.93C1368.71 -715.495 1728.2 -697.542 1939.46 -443.57C1977.63 -398.644 2031.56 -376.135 2089.96 -367.114C2665.17 -270.427 3166.23 -79.4243 3673.94 192.5C3837.92 280.165 3914.35 444.195 3950.34 623.989C3993.07 830.758 3959.36 1064.5 4127.8 1208.3C4206.42 1275.73 4305.27 1170.12 4341.25 1091.47C4392.91 974.648 4408.67 835.223 4523.28 758.858C4786.19 585.807 5046.74 471.169 5248.99 228.496C5383.82 68.9315 5444.49 -113.141 5547.8 -290.658C5680.35 -513.191 5880.32 -668.199 6134.22 -728.89C6480.22 -812.09 6747.61 -582.813 6970.07 -353.536C7075.66 -245.641 7210.49 -162.532 7363.45 -162.897L7363.18 -101.295ZM7363.18 28.9257C7363.18 28.9257 7330.93 28.9257 7270.98 26.6475C7154.19 8.33087 7048.6 -47.8038 6965.52 -133.19C6792.52 -306.241 6668.89 -533.24 6426.29 -611.883C6120.74 -708.57 5783.66 -528.684 5662.41 -247.829C5482.66 174.73 5154.61 466.885 4828.83 779.27C4763.69 842.239 4745.65 927.626 4705.3 1006.27C4615.38 1181.6 4435.64 1280.47 4264.91 1363.58C4204.24 1392.83 4125.62 1408.51 4071.69 1356.84C3995.25 1280.38 3970.56 1179.32 3948.15 1075.89C3887.48 794.944 3914.45 451.12 3635.86 300.486C3267.35 102.739 2910.14 -68.1252 2485.52 -146.768C2254.12 -191.694 2020.45 -169.277 1824.95 -304.054C1548.54 -495.058 1189.06 -531.053 953.197 -292.846C755.507 -95.0989 699.298 183.66 723.986 453.307C735.192 590.363 798.143 770.157 676.796 862.378C503.795 992.691 315.033 781.457 182.48 664.632C-116.332 397.172 -390.456 51.0696 -812.073 29.1079C-872.655 29.0168 -904.996 29.0168 -904.996 29.0168V-32.1298C-904.996 -32.1298 -872.655 -32.1298 -811.982 -31.7653C-585.959 -16.2736 -388.178 96.0866 -212.9 244.442C-21.9512 408.472 117.343 590.545 328.607 741.179C409.505 799.591 497.144 862.561 602.73 835.587C667.868 819.822 697.112 752.387 697.112 693.975C701.575 404.007 649.921 105.108 809.439 -169.094C986.905 -472.549 1366.62 -643.322 1683.47 -461.249C1782.31 -402.837 1852 -308.428 1968.79 -288.198C2595.66 -184.768 3164.13 -54.4561 3707.83 314.155C3925.74 462.511 3905.52 727.692 3952.71 965.899C3981.95 1105.23 3984.14 1314.28 4145.93 1336.7C4327.95 1361.39 4505.42 1210.85 4570.56 1046.73C4615.47 932.091 4669.4 828.752 4766.06 750.018C5031.17 534.228 5307.57 345.503 5458.07 39.7699C5619.86 -281.637 5826.57 -641.226 6221.95 -672.665C6585.9 -701.917 6785.87 -371.489 7026.28 -151.233C7116.2 -68.0341 7239.73 -27.6645 7363.27 -32.2209L7363.18 28.9257ZM7363.09 158.875V158.875C7363.15 158.875 7363.18 158.875 7363.18 158.875H7363.09ZM7270.35 158.51C6981.19 147.666 6844.17 -121.98 6680.1 -331.027C6574.51 -465.896 6423.92 -564.769 6250.92 -562.491C6050.95 -558.025 5853.26 -445.665 5767.81 -263.592C5608.29 78.0447 5372.34 343.226 5134.2 639.937C5120.72 657.889 5109.51 675.933 5100.49 696.163C5035.36 844.519 4958.92 974.831 4824.09 1071.52C4644.35 1201.83 4484.83 1316.47 4298.35 1431.11C4237.67 1467.1 4165.79 1498.54 4102.84 1462.55C3891.67 1341.16 3909.62 1071.52 3864.7 853.449C3824.26 653.424 3770.32 451.121 3581.56 349.969C3055.82 62.2795 2507.57 -86.076 1918.87 -157.976C1790.78 -173.741 1685.2 -238.897 1566.13 -281.545C1372.9 -355.722 1134.76 -312.984 977.431 -171.462C802.152 -14.1764 766.258 230.866 793.224 455.586C815.726 633.103 901.088 851.171 748.311 988.227C669.69 1057.94 557.363 1017.48 471.909 972.462C256.182 857.823 98.9407 682.494 -78.5247 516.186C-285.051 325.183 -525.468 158.875 -812.346 158.875C-872.928 158.875 -905.178 158.875 -905.178 158.875V97.7282C-905.178 97.7282 -872.837 97.7282 -812.346 97.7282C-559.175 102.74 -336.797 237.609 -148.035 406.104C38.4493 572.412 186.762 752.206 400.213 887.075C490.13 943.301 600.18 1003.9 699.025 945.488C797.87 889.262 800.148 767.971 784.387 669.007C725.991 316.161 719.25 -101.841 1060.79 -301.866C1213.57 -393.996 1409.07 -423.248 1573.05 -349.07C1710.07 -290.657 1831.41 -205.271 1984.19 -187.228C2570.61 -113.05 3114.39 28.5625 3631.12 345.413C3923.19 525.208 3862.52 893.819 3950.16 1183.7C3974.85 1269.08 3999.63 1359.02 4080.43 1410.69C4159.05 1460.18 4246.69 1419.72 4320.85 1376.98C4523.09 1255.59 4745.47 1149.98 4857.8 943.21C4954.46 763.415 5071.25 612.872 5212.82 466.704C5336.36 343.135 5444.22 223.94 5538.6 73.3971C5671.15 -135.649 5727.36 -380.6 5952.02 -513.191C6201.45 -661.546 6507.01 -605.321 6691.21 -382.878C6803.54 -245.823 6877.7 -101.932 7023.73 5.96271C7097.89 57.632 7180.98 86.884 7270.44 96.6346C7330.75 97.637 7363.09 97.6371 7363.09 97.6371V158.875C7361.18 158.875 7329 158.864 7270.35 158.51ZM7363.18 288.822C7363.18 288.822 7330.84 288.822 7270.34 288.731C7095.79 282.534 6936.28 194.869 6830.69 44.3265C6693.67 -146.677 6603.76 -371.488 6379.1 -456.875C6167.93 -533.331 5940.99 -409.671 5846.61 -214.111C5806.16 -133.19 5770.18 -56.8252 5718.52 21.909C5568.02 251.186 5426.45 451.211 5302.83 689.418C5251.17 790.57 5177.02 873.678 5084.91 945.669C4799.59 1177.13 4518.72 1383.9 4192.94 1527.79C3990.7 1615.46 3912.08 1323.3 3871.63 1159.18C3817.7 932.182 3819.97 691.697 3658.18 518.646C3473.97 325.364 3208.77 260.208 2968.36 163.521C2593.11 15.1658 2199.92 -43.2471 1795.52 -94.9164C1685.47 -110.681 1588.81 -162.351 1480.95 -171.372C1290 -184.859 1083.29 -108.403 959.665 42.1394C779.922 260.117 898.991 541.063 921.493 795.035C930.512 916.417 910.288 1069.24 786.663 1120.91C674.335 1165.83 557.452 1109.7 456.421 1053.47C251.99 938.835 99.2126 776.992 -76.0662 619.706C-285.053 433.168 -527.655 271.325 -812.256 288.913C-872.838 288.913 -905.088 288.913 -905.088 288.913V227.766C-905.088 227.766 -872.747 227.766 -812.256 227.766C-595.07 224.212 -397.289 314.064 -217.547 448.933C92.5623 680.397 319.405 1093.93 723.894 1066.96C885.69 1057.94 896.896 837.683 869.93 696.162C822.739 430.981 766.53 134.269 971.052 -67.9427C1110.35 -209.555 1323.8 -267.968 1523.76 -223.042C1615.87 -202.811 1694.49 -153.329 1786.68 -139.842C2422.57 -47.7124 3017.92 71.3914 3581.92 399.542C3718.94 478.185 3781.89 622.075 3817.88 772.618C3876.27 999.617 3865.07 1231.08 4004.36 1435.66C4044.81 1491.89 4112.23 1534.54 4179.64 1509.84C4456.04 1404.22 4667.21 1210.94 4921.11 1037.89C5028.98 965.991 5114.34 882.791 5170.55 770.431C5289.62 541.154 5433.47 350.151 5590.71 141.104C5687.37 12.9786 5741.21 -121.89 5817.64 -258.946C5871.57 -351.076 5943.45 -425.254 6037.83 -474.736C6275.97 -596.118 6543.36 -477.014 6684.93 -252.202C6826.5 -27.482 6981.55 226.491 7270.62 227.675C7331.2 227.857 7363.45 227.857 7363.45 227.857V288.822H7363.18ZM7270.34 418.77C6904.85 437.634 6740.86 93.7183 6567.86 -180.393C6471.2 -333.214 6284.72 -443.387 6116.27 -344.423C6035.37 -299.497 5988.18 -225.319 5940.99 -146.676C5918.49 -106.215 5898.27 -72.4983 5873.58 -32.0377C5752.23 158.966 5651.11 334.295 5543.34 529.855C5413.06 763.597 5231.04 938.926 5001.83 1087.19C4736.73 1255.78 4503.05 1395.11 4242.41 1577.18C4181.74 1619.92 4105.39 1642.34 4044.72 1595.14C3811.04 1408.6 3826.81 1098.4 3750.37 835.497C3640.32 444.468 3226.9 356.804 2903.31 226.4C2458.46 48.8837 1988.84 -7.34216 1512.56 -50.081C1429.38 -56.8244 1353.04 -32.1288 1281.16 12.8882C1200.26 64.5576 1144.14 127.527 1065.43 181.474C937.345 269.139 955.383 428.703 980.071 561.294C1016.06 772.528 1076.73 1008.55 926.139 1183.88C849.705 1271.54 719.431 1246.85 618.308 1210.85C332.979 1111.98 130.734 896.188 -98.4771 700.628C-302.908 523.111 -543.325 397.173 -812.256 418.862C-872.838 418.862 -905.088 418.862 -905.088 418.862V357.715C-905.088 357.715 -872.747 357.715 -812.256 357.715C-556.899 341.039 -329.966 457.955 -134.462 624.263C99.2128 819.823 292.439 1044.54 573.304 1154.63C660.944 1190.62 764.252 1222.06 854.169 1163.65C970.961 1087.19 979.98 938.926 973.239 815.266C959.756 599.476 840.686 372.478 968.775 174.731C1092.31 -16.2727 1330.54 -144.398 1573.14 -95.0068C1613.59 -85.9852 1649.57 -74.7765 1689.93 -70.3113C2341.49 1.58838 2961.62 134.179 3541.29 471.351C3682.87 552.272 3741.26 707.371 3781.71 857.914C3846.85 1098.4 3844.66 1368.14 4031.15 1547.93C4114.32 1628.85 4226.65 1568.16 4312.01 1511.94C4388.44 1460.27 4451.3 1410.78 4527.74 1359.12C4851.24 1147.88 5183.85 999.526 5397.3 664.633C5487.22 523.02 5541.06 385.965 5637.72 246.631C5759.06 64.5576 5844.43 -99.4721 5961.22 -281.545C6017.43 -362.466 6096.05 -414.135 6190.43 -429.9C6406.16 -461.339 6561.12 -297.31 6660.06 -124.259C6794.89 111.762 6970.17 376.943 7270.44 357.624C7331.02 357.624 7363.27 357.624 7363.27 357.624V418.77C7363.27 418.77 7330.84 418.77 7270.34 418.77ZM7270.34 548.718C6868.86 583.711 6689.12 201.613 6491.43 -95.0072C6455.44 -151.233 6410.53 -198.437 6352.13 -227.598C6284.72 -259.037 6203.82 -238.806 6149.89 -184.859C5929.7 33.1182 5817.37 298.391 5642.09 561.294C5480.29 806.244 5282.61 981.574 5033.17 1123.19C4743.29 1287.22 4498.41 1460.27 4213.08 1651.36C4008.64 1788.42 3880.56 1516.49 3826.62 1350.18C3750.19 1109.7 3745.73 831.031 3548.04 655.702C3233.46 377.034 2831.25 273.604 2433.59 158.965C2141.52 75.7659 1847.17 42.1397 1548.36 55.5355C1453.98 60.0007 1366.34 98.2743 1310.22 179.105C1249.55 266.769 1215.84 352.156 1137.22 421.868C1099.05 457.864 1099.05 518.555 1099.05 570.224C1103.51 776.992 1150.71 988.226 1081.1 1192.81C1024.89 1361.39 813.721 1354.65 669.963 1309.63C357.668 1212.95 139.754 988.226 -116.423 788.201C-248.976 684.771 -386.083 601.663 -545.875 562.022C-662.576 549.082 -751.582 548.718 -812.164 548.718C-872.746 548.718 -904.996 548.718 -904.996 548.718V487.571C-904.996 487.571 -872.655 487.571 -812.164 487.571C-751.673 487.571 -662.393 488.665 -543.324 510.627C-408.494 540.972 -293.889 608.406 -177.097 693.793C157.701 938.744 436.289 1332.05 874.395 1278.1C1099.05 1251.13 1076.64 958.974 1065.34 781.367C1056.32 630.824 977.704 457.773 1081.1 329.647C1137.31 257.748 1202.45 203.8 1260.85 131.9C1310.31 71.2094 1375.45 26.2836 1449.61 21.8183C2161.84 -23.1076 2853.84 190.404 3485.27 538.785C3635.77 621.984 3698.72 786.014 3748.19 945.578C3824.62 1192.81 3813.32 1588.39 4109.95 1640.06C4273.93 1669.31 4377.33 1498.45 4516.63 1410.78C4721.06 1284.94 4905.35 1179.32 5109.79 1048.92C5444.58 837.683 5613.12 516.277 5813.09 190.404C5918.67 12.8879 5995.11 -189.415 6181.59 -292.845C6318.61 -369.301 6451.25 -254.663 6527.6 -137.746C6716.36 145.478 6882.62 523.02 7270.53 487.571C7331.11 487.571 7363.36 487.571 7363.36 487.571V548.718C7363.36 548.718 7330.84 548.718 7270.34 548.718ZM7270.34 678.667C6889.09 720.768 6664.43 397.174 6473.48 102.741C6426.29 30.841 6363.43 -50.0803 6269.05 -32.1282C6120.74 -2.87622 6051.14 131.901 5970.24 248.818C5783.75 516.278 5630.98 763.507 5372.61 963.532C5147.96 1136.58 4912.01 1244.48 4669.31 1381.53C4498.59 1478.22 4377.24 1608.53 4213.17 1723.17C4132.27 1779.4 4028.96 1768.1 3963.73 1698.48C3788.45 1507.47 3752.56 1248.94 3667.11 1015.2C3617.64 878.145 3545.76 743.276 3419.95 669.098C2851.48 334.205 2235.9 37.5845 1557.29 163.432C1395.49 194.871 1384.29 363.457 1357.32 498.325C1352.86 516.278 1346.12 532.043 1334.82 545.53C1292.09 595.012 1247.18 639.938 1240.44 705.094C1215.75 898.375 1267.41 1098.4 1188.79 1273.73C1085.39 1500.73 775.367 1428.83 582.141 1352.37C292.257 1240.01 85.5481 1028.78 -179.557 846.706C-298.626 768.063 -415.509 711.837 -547.971 685.775C-663.032 678.667 -751.855 678.667 -812.438 678.667C-873.02 678.667 -905.27 678.667 -905.27 678.667V617.52C-905.27 617.52 -872.929 617.52 -812.438 617.52C-751.946 617.52 -663.032 617.52 -547.242 627.271C-422.251 655.612 -312.109 707.372 -199.781 783.737C119.256 1003.99 352.931 1282.66 737.196 1368.05C874.212 1397.3 1051.77 1406.23 1121.37 1269.17C1222.49 1066.87 1152.8 835.406 1175.3 615.151C1179.77 581.434 1191.06 547.717 1213.47 518.465C1238.16 491.491 1271.87 471.261 1285.35 439.822C1328.08 320.718 1348.3 167.897 1487.6 136.367C2170.68 -14.176 2799.73 291.466 3388.43 588.086C3530 659.986 3622.1 799.32 3678.31 947.676C3770.41 1197.18 3788.36 1482.59 3988.42 1680.34C4058.11 1747.78 4163.7 1738.75 4237.86 1680.34C4377.15 1574.72 4491.75 1464.55 4642.25 1376.89C4882.67 1237.55 5111.88 1125.19 5334.26 954.328C5606.11 743.094 5754.42 471.078 5947.65 185.667C6044.3 41.8673 6172.3 -221.127 6365.53 -108.766C6527.32 -14.3583 6583.44 165.437 6693.58 325.001C6830.6 522.748 7039.59 630.643 7270.25 617.247C7330.84 617.247 7363.09 617.247 7363.09 617.247V678.667C7363.09 678.667 7330.84 678.667 7270.34 678.667ZM7270.35 808.614C7209.76 808.614 7121.3 807.429 7013.71 787.107C6877.88 761.318 6770.11 675.841 6671.17 581.524C6547.64 462.42 6477.95 291.556 6320.71 219.656C6215.12 172.452 6120.74 269.138 6055.6 347.781C5806.17 642.215 5583.79 938.835 5239.97 1125.37C4887.23 1316.38 4536.67 1467.01 4251.34 1759.17C4199.68 1810.83 4125.53 1846.83 4051.37 1824.32C3898.59 1777.12 3828.9 1622.02 3770.51 1487.24C3662.64 1242.29 3617.73 961.343 3397.54 788.292C2984.12 469.163 2516.77 273.603 2006.78 215.191C1858.47 199.426 1683.28 183.752 1570.86 300.577C1476.48 394.985 1521.4 534.319 1483.23 651.145C1456.26 734.344 1393.31 792.757 1373.17 882.609C1339.47 1039.9 1393.4 1199.46 1316.97 1341.07C1240.53 1484.87 1056.32 1507.38 905.825 1498.36C528.392 1475.85 236.23 1244.39 -73.7874 1024.13C-224.287 916.235 -372.6 835.314 -548.972 811.621C-662.849 808.522 -751.672 808.522 -812.255 808.522C-872.837 808.522 -905.178 808.614 -905.178 808.614V747.467C-905.178 747.467 -872.837 747.467 -812.346 747.467C-751.855 747.467 -662.94 747.467 -548.607 752.114C-381.71 779.179 -237.861 857.914 -96.2894 958.974C126.18 1118.54 314.851 1282.57 559.822 1383.72C764.254 1464.64 1029.45 1534.26 1209.19 1372.51C1350.76 1244.39 1272.14 1037.62 1303.57 862.288C1314.78 803.875 1319.33 747.649 1355.23 698.258C1382.19 662.263 1413.62 633.102 1424.92 592.641C1460.91 475.816 1422.64 331.925 1532.78 251.004C1701.32 127.435 1908.03 165.617 2101.26 194.778C2582.09 273.421 3004.53 444.285 3406.65 731.884C3631.3 889.17 3669.57 1161.19 3763.86 1399.39C3826.81 1554.49 3891.94 1765.73 4085.17 1794.98C4161.6 1806.19 4228.93 1756.8 4280.67 1705.04C4543.59 1446.6 4858.07 1304.99 5174.92 1134.21C5568.12 925.166 5801.79 583.619 6066.9 228.495C6154.54 107.113 6318.52 28.4702 6428.66 170.083C6599.38 385.873 6734.21 653.332 7014.44 721.587C7121.67 745.098 7209.95 747.376 7270.53 747.376C7331.11 747.376 7363.36 747.376 7363.36 747.376V808.614C7363.36 808.614 7330.84 808.614 7270.35 808.614ZM7270.35 938.561C7209.76 938.561 7121.03 938.47 7011.98 925.165C6738.59 891.63 6572.33 662.354 6363.34 496.046C6282.44 433.077 6179.13 455.585 6107.16 518.554C5844.25 736.531 5637.54 986.039 5334.26 1145.6C5111.79 1262.43 4891.6 1350.09 4671.41 1473.75C4507.42 1565.88 4392.82 1703.03 4255.71 1828.88C4204.06 1876.08 4138.92 1914.26 4064.76 1900.78C3927.75 1878.27 3849.04 1759.16 3786.18 1646.8C3610.9 1336.61 3530 972.552 3208.78 774.805C2772.86 505.067 2316.8 217.469 1784.32 314.064C1692.21 332.016 1633.82 412.938 1629.26 502.88C1622.52 687.14 1564.12 851.261 1521.4 1031.06C1489.97 1168.11 1537.16 1325.49 1420.27 1426.64C1110.17 1691.82 678.801 1565.97 353.022 1392.92C49.6549 1233.36 -199.689 968.177 -549.61 939.746C-663.031 938.743 -751.855 938.743 -812.346 938.743C-872.837 938.743 -905.178 938.743 -905.178 938.743V877.597C-905.178 877.597 -872.837 877.597 -812.346 877.597C-751.855 877.597 -662.94 877.597 -549.427 879.419C-255.899 909.765 -40.1711 1109.79 209.173 1269.35C478.833 1442.41 766.349 1575 1087.66 1532.35C1238.16 1509.84 1422.46 1431.2 1426.92 1260.42C1429.2 1071.61 1467.37 891.813 1539.25 714.296C1595.46 579.428 1525.77 372.659 1683.01 303.038C1977.36 172.725 2307.6 294.016 2590.74 408.655C2878.35 525.48 3168.14 642.397 3399.63 862.652C3455.84 916.599 3494.01 979.477 3534.46 1046.91C3689.52 1309.91 3725.41 1624.48 3968.1 1826.78C4037.8 1883.01 4134.36 1887.47 4208.52 1831.25C4401.75 1680.7 4545.5 1498.63 4767.97 1395.2C5136.48 1224.43 5495.97 1049.1 5788.04 750.2C5936.35 599.658 6053.14 359.172 6277.89 347.872C6372.27 343.407 6432.94 433.259 6493.62 500.693C6639.65 657.98 6796.98 822.1 7012.71 860.556C7120.94 877.141 7209.67 877.597 7270.25 877.597C7330.84 877.597 7363.09 877.597 7363.09 877.597V938.561C7363.09 938.561 7330.84 938.561 7270.35 938.561ZM7270.34 1068.51C7209.76 1068.51 7120.94 1068.51 7010.16 1061.49C6778.94 1046.73 6590.27 911.86 6408.25 770.248C6277.98 669.097 6122.92 700.536 6003.85 794.944C5673.61 1057.94 5329.8 1246.66 4943.34 1390.55C4662.48 1493.98 4453.49 1689.45 4249.06 1905.24C4213.08 1945.7 4161.42 1977.14 4107.49 1974.95C3956.99 1968.21 3840.11 1858.13 3757.02 1732.19C3572.82 1444.5 3467.14 1138.86 3211.05 916.326C2912.24 657.888 2577.44 475.815 2179.79 399.359C2049.51 374.664 1910.13 356.62 1802.35 444.285C1757.44 480.28 1739.4 543.159 1734.94 601.571C1725.92 680.214 1721.45 756.67 1710.25 837.592C1690.02 985.947 1692.3 1125.28 1658.59 1273.64C1593.46 1552.31 1278.88 1633.23 1031.73 1639.97C598.085 1653.46 236.321 1401.76 -136.648 1192.72C-264.736 1120.82 -401.753 1071.33 -549.701 1068.6C-662.849 1068.51 -751.673 1068.51 -812.164 1068.51C-872.655 1068.51 -904.996 1068.51 -904.996 1068.51V1007.36C-904.996 1007.36 -872.655 1007.36 -812.164 1007.36C-751.673 1007.36 -662.758 1007.36 -549.519 1007.82C-383.715 1010.73 -237.679 1078.17 -96.1077 1165.83C252.173 1379.34 591.434 1610.81 1000.39 1610.81C1243.08 1610.81 1568.86 1511.94 1593.55 1226.52C1598.01 1170.3 1595.83 1116.44 1607.03 1060.22C1638.46 889.443 1672.17 732.066 1683.47 563.48C1687.93 478.093 1732.93 385.963 1820.48 367.92C2348.51 253.282 2800.09 554.458 3213.51 853.357C3494.38 1057.85 3586.48 1374.79 3755.02 1664.67C3833.64 1797.26 3941.5 1956.82 4110.04 1938.87C4247.06 1925.38 4325.77 1792.79 4420.15 1700.66C4548.24 1577.09 4687.53 1475.94 4851.51 1408.51C5287.43 1228.71 5691.83 1010.73 6035.56 675.84C6215.3 502.789 6422.01 651.145 6570.32 785.922C6693.86 900.561 6842.17 981.482 7011.25 997.521C7121.21 1007.27 7210.04 1007.27 7270.62 1007.27C7331.2 1007.27 7363.45 1007.27 7363.45 1007.27V1068.51C7363.45 1068.51 7330.84 1068.51 7270.34 1068.51ZM7270.35 1198.46C7209.76 1198.46 7120.94 1198.46 7008.79 1195.73C6909.31 1195 6812.74 1174.77 6718.36 1143.33C6482.41 1062.41 6253.29 842.15 5994.84 990.506C5630.89 1201.74 5262.38 1338.89 4875.93 1478.22C4619.75 1568.16 4453.49 1768.19 4273.75 1963.66C4222.1 2019.88 4150.22 2060.34 4069.32 2049.04C3979.4 2035.56 3903.06 1990.63 3837.92 1927.66C3579.56 1682.71 3444.73 1370.33 3222.26 1089.38C3011.09 826.385 2718.92 669.099 2411.18 552.273C2262.87 496.048 2080.94 428.705 1946.11 534.321C1748.42 687.142 1867.49 965.81 1829.32 1190.62C1750.7 1637.88 1224.95 1752.51 838.501 1696.29C649.739 1667.04 479.015 1608.62 308.292 1527.7C29.5215 1395.02 -231.119 1192.72 -549.883 1198.46C-662.94 1198.46 -751.763 1198.46 -812.346 1198.46C-872.928 1198.46 -905.178 1198.46 -905.178 1198.46V1137.31C-905.178 1137.31 -872.837 1137.31 -812.346 1137.31C-751.855 1137.31 -662.94 1137.31 -549.883 1137.31C-210.895 1141.05 56.4874 1374.79 355.3 1511.94C579.956 1617.55 820.372 1687.27 1067.53 1675.97C1341.65 1660.2 1680.92 1559.14 1746.05 1251.22C1788.78 1037.71 1768.55 839.963 1795.52 628.638C1809 527.487 1892.18 444.379 1993.21 442.1C2458.28 428.613 2894.2 689.329 3217.7 1012.92C3428.88 1221.97 3543.48 1480.41 3709.74 1734.38C3828.81 1918.64 4073.69 2141.17 4262.45 1932.13C4451.21 1725.36 4644.44 1534.36 4909.55 1435.39C5161.17 1338.7 5403.86 1244.39 5646.46 1118.54C5859.91 1008.46 6064.35 761.229 6316.06 857.824C6549.73 947.767 6749.7 1132.03 7009.25 1132.76C7120.85 1137.22 7209.67 1137.22 7270.25 1137.22C7330.84 1137.22 7363.09 1137.22 7363.09 1137.22V1198.46C7363.09 1198.46 7330.84 1198.46 7270.35 1198.46ZM7270.35 1328.41C7209.76 1328.41 7120.94 1328.41 7008.06 1327.86C6895.92 1329.86 6788.06 1316.38 6675.73 1289.4C6428.57 1226.43 6190.43 1091.66 5938.81 1190.53C5662.41 1300.61 5386.1 1386.09 5096.21 1469.2C4896.25 1525.42 4705.3 1595.04 4547.96 1736.66C4390.63 1878.27 4294.07 2156.94 4049.18 2120.94C3772.78 2078.2 3611.08 1835.53 3449.28 1617.46C3316.73 1437.67 3238.11 1244.39 3080.78 1093.84C2817.86 846.614 2505.56 579.155 2132.6 624.081C1892.18 651.055 1986.56 965.718 1966.34 1147.7C1923.61 1534.26 1519.21 1725.27 1170.93 1765.73C714.786 1819.67 308.109 1612.91 -89.5479 1426.37C-235.583 1358.93 -390.638 1320.75 -549.883 1328.22C-662.94 1328.22 -751.763 1328.22 -812.346 1328.22C-872.928 1328.22 -905.178 1328.22 -905.178 1328.22V1267.08C-905.178 1267.08 -872.837 1267.08 -812.346 1267.08C-751.855 1267.08 -662.94 1267.08 -549.883 1267.08C-244.602 1257.78 13.7609 1433.11 283.421 1558.96C656.39 1734.29 1085.57 1817.4 1476.48 1655.64C1683.19 1570.26 1880.88 1408.42 1903.38 1172.4C1919.14 1001.62 1876.42 826.293 1937.09 664.45C1982 543.069 2128.04 531.86 2242.65 558.833C2633.56 650.963 2972.91 857.732 3217.79 1179.14C3473.97 1516.22 3626.75 1992.73 4073.87 2078.11C4280.58 2116.29 4370.5 1875.81 4503.05 1747.77C4626.59 1626.39 4772.71 1543.28 4934.42 1489.34C5305.11 1367.96 5655.67 1235.36 6010.69 1087.01C6102.79 1048.83 6203.91 1042.08 6300.57 1073.52C6534.25 1154.44 6756.72 1271.27 7008.43 1265.8C7121.12 1267.08 7209.95 1267.08 7270.44 1267.08C7331.02 1267.08 7363.27 1267.08 7363.27 1267.08V1328.41C7363.27 1328.41 7330.84 1328.41 7270.35 1328.41ZM7270.35 1458.35C7209.76 1458.35 7120.94 1458.35 7007.88 1458.35C6846.36 1460.27 6686.84 1451.25 6522.86 1413.06C6271.24 1352.37 6030.82 1323.12 5781.39 1397.3C5536.51 1469.2 5302.83 1505.19 5046.65 1559.14C4738.82 1622.11 4525.37 1799.63 4350.09 2055.88C4275.94 2163.77 4159.14 2244.69 4026.59 2208.7C3568.26 2089.59 3366.02 1653.55 3096.36 1293.96C2900.85 1033.24 2649.23 826.475 2323.45 763.597C2233.54 745.645 2143.71 783.827 2121.21 878.235C2080.76 1069.24 2100.98 1262.52 1972.9 1419.9C1467.37 2053.69 595.626 1867.15 -33.5202 1556.95C-136.92 1505.28 -249.248 1478.31 -361.029 1463.27C-430.813 1458.9 -493.491 1458.44 -550.065 1458.44C-776.178 1458.44 -905.36 1458.44 -905.36 1458.44V1397.3C-905.36 1397.3 -873.019 1397.3 -812.528 1397.3C-752.036 1397.3 -663.121 1397.3 -550.065 1397.3C-397.561 1388.37 -244.784 1415.34 -105.49 1478.31C397.845 1705.31 961.762 1939.05 1507.73 1721.07C1656.04 1660.38 1788.6 1577.27 1896.46 1453.61C2040.22 1291.77 2033.48 1080.54 2044.77 882.791C2047.05 831.122 2058.26 772.709 2098.71 741.179C2289.65 588.358 2523.33 761.41 2703.07 864.748C3028.85 1053.56 3201.85 1341.25 3410.84 1653.64C3563.62 1882.92 3743.36 2096.43 4015.2 2163.86C4293.79 2231.3 4394.92 1907.61 4572.38 1754.79C4691.45 1651.36 4828.56 1588.48 4976.78 1543.56C5194.69 1478.4 5405.96 1440.22 5623.87 1377.25C5821.56 1318.84 6012.6 1231.17 6223.77 1269.35C6491.16 1316.56 6738.31 1406.41 7007.61 1397.39C7120.67 1397.39 7209.49 1397.39 7270.07 1397.39C7330.65 1397.39 7362.91 1397.39 7362.91 1397.39V1458.35C7362.91 1458.35 7330.84 1458.35 7270.35 1458.35ZM7007.88 1588.3C6951.4 1588.3 6888.81 1588.3 6820.76 1588.03C6588 1583.84 6356.6 1538.91 6122.92 1529.89C5781.39 1518.68 5451.14 1599.6 5107.33 1639.97C4970.31 1657.92 4837.67 1687.17 4714.13 1761.35C4550.15 1862.5 4464.7 2024.35 4341.16 2163.68C4284.96 2228.84 4219.82 2287.25 4134.46 2300.74C3907.52 2336.73 3730.06 2186.1 3563.8 2051.23C3305.43 1840 3170.6 1556.77 2952.69 1309.54C2835.9 1176.95 2707.81 1073.52 2552.75 990.413C2451.63 936.466 2292.11 916.235 2253.94 1046.64C2157.28 1370.23 1950.57 1646.71 1638.28 1781.58C1112.53 2010.86 544.062 1882.73 36.263 1682.71C-91.8255 1633.23 -224.378 1597.32 -362.032 1589.67C-430.813 1588.3 -493.4 1588.3 -549.883 1588.3C-775.996 1588.3 -905.178 1588.3 -905.178 1588.3V1527.15C-905.178 1527.15 -775.996 1527.15 -549.883 1527.15C-493.4 1527.15 -430.722 1527.25 -361.576 1529.89C-114.327 1554.58 108.142 1664.76 339.539 1747.87C757.421 1900.69 1220.31 1927.66 1636 1745.59C1955.04 1606.25 2128.04 1311.82 2199.92 967.996C2242.65 772.436 2478.51 869.122 2606.6 941.022C2961.62 1145.51 3143.55 1473.66 3383.96 1795.07C3525.53 1986.07 3696.26 2127.69 3905.24 2228.84C4051.28 2300.74 4224.28 2260.28 4329.87 2134.43C4413.04 2035.56 4478.18 1936.68 4565.82 1842.27C4729.8 1666.94 4959.01 1617.55 5185.95 1581.56C5435.38 1543.38 5666.78 1496.17 5916.12 1457.99C6019.52 1440.04 6116.09 1442.22 6219.49 1453.52C6423.92 1478.22 6619.43 1520.96 6821.67 1525.24C6888.72 1527.15 6951.31 1527.25 7007.79 1527.25C7233.91 1527.25 7363.09 1527.25 7363.09 1527.25V1588.3C7363.09 1588.3 7234 1588.3 7007.88 1588.3ZM7007.88 1718.25C6951.4 1718.25 6888.81 1718.25 6820.67 1718.25C6581.26 1720.89 6343.12 1696.2 6102.7 1691.73C5718.53 1687.27 5341 1714.24 4954.55 1763.63C4815.26 1781.58 4693.91 1851.3 4597.34 1952.45C4449.03 2112.01 4359.2 2356.96 4123.25 2383.94C3840.11 2413.19 3608.71 2215.35 3406.46 2035.56C3197.48 1849.02 3058.18 1622.02 2862.77 1421.99C2734.68 1291.68 2505.56 1053.38 2350.51 1248.94C2152.82 1498.45 1952.85 1725.45 1662.97 1851.3C1069.81 2109.73 460.886 1909.71 -129.997 1745.68C-206.431 1723.17 -285.051 1718.71 -362.579 1718.34C-430.813 1718.25 -493.4 1718.25 -549.883 1718.25C-775.996 1718.25 -905.178 1718.25 -905.178 1718.25V1657.1C-905.178 1657.1 -775.996 1657.1 -549.883 1657.1C-493.4 1657.1 -430.813 1657.1 -362.396 1657.56C-244.602 1662.48 -132.274 1682.71 -19.9465 1720.89C487.852 1893.94 1027.08 2042.3 1555.1 1857.95C1903.38 1734.38 2157.28 1469.11 2312.25 1140.96C2352.7 1055.57 2458.28 1048.83 2539.18 1084.73C2700.98 1158.91 2829.07 1275.73 2945.86 1410.6C3125.6 1617.37 3255.97 1842.09 3460.4 2024.16C3658.09 2199.49 3896.32 2410.73 4170.44 2332.08C4363.67 2275.86 4444.56 2078.11 4572.65 1929.76C4711.95 1767.91 4911.91 1711.78 5111.88 1689.27C5343.28 1666.76 5568.03 1651.09 5799.42 1626.3C5911.75 1615.09 6019.62 1610.54 6131.94 1617.28C6363.34 1630.77 6590.27 1657.74 6820.76 1656.74C6888.9 1656.83 6951.4 1656.83 7007.97 1656.83C7234.09 1656.83 7363.27 1656.83 7363.27 1656.83V1718.25C7363.27 1718.25 7234 1718.25 7007.88 1718.25Z" fill="#A51757" fill-opacity="0.5"/>
</g>
</g>
</g>
<path id="rightBar" d="M1920 0V1080H1522L1920 0Z" fill="#ED0E73" fill-opacity="0.7"/>
<g id="topLayer">
<mask id="mask1" style="mask-type:alpha" maskUnits="userSpaceOnUse" x="0" y="0" width="1920" height="1080">
<path id="topMask" fill-rule="evenodd" clip-rule="evenodd" d="M0 317.039V0H202.062L0 317.039ZM1857.08 0L1458.97 1080H1920V0H1857.08ZM955.797 1080H0V790.603L955.797 1080Z" fill="#C4C4C4"/>
</mask>
<g mask="url(#mask1)">
<g id="topLayerMain">
<g id="em5RMJYNCX737_tr">
<g id="em5RMJYNCX737_ts">
<path id="em5RMJYNCX737" d="M-1578.45 -583.975C-1454.13 -598.648 -1339.28 -635.708 -1212.11 -657.944C-929.339 -708.575 -672.5 -607.312 -449.005 -434.384C-404.546 -401.031 -347.721 -354.055 -293.4 -396.073C-209.439 -462.78 -144.003 -543.059 -34.108 -567.749C110.383 -599.9 231.393 -518.369 352.403 -459.074C456.089 -408.443 573.394 -434.384 677.131 -471.444C1003.11 -590.035 1338.95 -678.978 1688.42 -633.254C1913.16 -603.606 2060.11 -420.813 2220.62 -272.574C2265.08 -233.061 2315.74 -191.093 2379.93 -204.665C2555.26 -242.977 2656.49 -380.047 2797.28 -483.814C2847.9 -519.621 2899.76 -545.563 2957.79 -562.841C2956.54 -552.975 2961.5 -535.697 2957.79 -534.445C2894.81 -508.504 2835.53 -482.562 2778.7 -439.342C2645.38 -338.08 2540.39 -210.825 2376.17 -167.606C2335.42 -156.488 2294.67 -173.815 2265.03 -202.211C2102.06 -350.399 1967.48 -531.991 1746.44 -590.035C1335.3 -697.507 942.63 -525.781 561.128 -391.165C483.326 -362.769 396.861 -361.517 321.562 -405.989C211.667 -472.696 102.973 -564.093 -31.604 -527.033C-136.593 -498.638 -199.576 -410.947 -274.875 -338.08C-314.377 -299.768 -364.994 -329.416 -398.338 -359.063C-632.948 -564.143 -921.929 -703.667 -1239.25 -628.346C-1356.55 -601.152 -1462.74 -565.345 -1578.4 -551.372L-1578.45 -583.975ZM-1578.55 -514.563C-1446.72 -534.495 -1325.71 -585.127 -1189.88 -609.816C-1025.67 -639.464 -866.407 -614.774 -718.211 -545.613C-574.972 -478.906 -469.984 -368.979 -346.521 -268.918C-315.63 -244.229 -277.379 -244.229 -251.445 -276.33C-183.505 -356.609 -127.932 -450.46 -22.994 -481.36C46.148 -502.343 112.836 -477.654 172.114 -436.888C227.687 -398.627 267.189 -352.903 325.216 -324.508C411.68 -281.288 508.007 -309.684 590.716 -345.491C963.61 -507.251 1379.71 -685.137 1783.54 -548.017C1969.99 -485.016 2099.66 -338.029 2230.53 -192.295C2273.74 -144.118 2336.72 -100.898 2402.16 -133C2534.28 -198.505 2639.22 -291.104 2752.82 -387.459C2815.75 -439.342 2883.69 -477.654 2960.24 -498.638C2958.99 -487.52 2963.95 -471.494 2960.24 -470.242C2892.35 -445.502 2828.12 -417.106 2768.84 -371.383C2639.17 -268.818 2528.07 -156.437 2379.88 -90.982C2311.94 -61.335 2257.62 -126.79 2216.86 -176.219C2065.01 -361.467 1892.13 -529.437 1650.11 -564.043C1247.58 -620.834 888.26 -439.292 535.093 -277.482C468.455 -246.582 389.401 -225.599 316.555 -255.246C251.068 -282.44 212.818 -342.937 157.244 -387.409C102.923 -431.88 31.3279 -461.528 -35.3601 -431.88C-129.184 -391.115 -174.894 -298.516 -235.374 -216.985C-262.56 -179.925 -308.22 -187.337 -335.406 -214.531C-503.327 -378.795 -668.796 -543.059 -913.269 -588.782C-1112.08 -625.842 -1291.12 -561.639 -1475.11 -504.797C-1509.66 -494.932 -1544.25 -487.52 -1578.8 -481.71L-1578.55 -514.563ZM-1579.15 -444.651C-1561.47 -448.056 -1542.95 -450.51 -1525.68 -455.468C-1299.73 -528.335 -1068.82 -624.64 -829.257 -545.613C-620.582 -475.2 -476.091 -318.348 -330.399 -158.992C-306.918 -133.05 -264.962 -104.654 -235.323 -136.756C-190.865 -183.731 -166.182 -238.069 -127.881 -292.406C-87.1281 -349.248 -34.0581 -399.879 40.0399 -385.055C121.548 -368.979 167.208 -301.02 216.623 -240.523C291.973 -145.42 416.687 -170.11 510.511 -214.581C816.72 -362.769 1114.31 -527.033 1458.81 -554.227C1800.81 -581.421 2061.36 -354.155 2263.88 -92.285C2371.32 47.29 2504.64 -142.916 2608.38 -212.077C2728.14 -293.608 2820.76 -404.737 2962.75 -431.93C2961.5 -420.813 2967.7 -404.737 2959.04 -402.283C2740.45 -339.282 2604.63 -163.9 2418.23 -31.687C2358.95 10.28 2292.26 2.86803 2252.76 -57.629C2099.66 -291.054 1904.55 -492.378 1621.78 -525.731C1241.48 -570.203 909.34 -375.039 582.106 -209.523C477.117 -155.186 352.402 -73.705 236.349 -141.614C184.481 -172.513 161 -225.599 125.203 -271.322C73.3339 -338.03 -21.7411 -360.265 -79.7681 -291.104C-126.68 -235.565 -155.067 -175.017 -193.368 -113.268C-208.187 -91.0329 -223.007 -61.385 -252.646 -63.839C-287.192 -66.343 -314.378 -93.486 -335.355 -120.68C-493.414 -319.5 -666.292 -501.092 -926.836 -548.017C-1144.12 -586.329 -1329.37 -483.764 -1526.93 -423.267C-1544.25 -418.359 -1562.73 -415.855 -1579.55 -411.347L-1579.15 -444.651ZM-1580 -373.637C-1552.86 -378.845 -1525.73 -386.257 -1498.54 -396.123C-1317.05 -462.83 -1139.22 -557.933 -935.497 -525.832C-649.019 -481.36 -476.191 -262.709 -309.471 -44.107C-286.04 -14.46 -240.33 22.6 -208.238 -12.006C-156.369 -68.797 -135.391 -139.21 -92.1841 -204.665C-63.7971 -249.137 -11.9281 -287.448 39.9399 -260.255C104.175 -228.153 128.857 -156.488 173.316 -102.151C267.14 11.482 422.745 -88.529 525.231 -137.958C837.64 -286.146 1131.53 -493.68 1483.45 -510.958C1611.86 -517.168 1737.83 -488.722 1853.88 -430.679C2044.03 -336.828 2148.97 -167.606 2271.23 7.77606C2305.78 57.2061 2362.61 43.634 2405.81 12.734C2593.51 -124.386 2738 -315.844 2963.95 -362.769C2962.7 -351.652 2968.91 -335.576 2960.24 -333.122C2744.16 -281.238 2607.13 -114.52 2438.06 17.642C2399.75 47.24 2361.5 92.963 2309.64 78.139C2270.13 65.819 2250.36 26.306 2231.83 -8.29999C2108.37 -238.019 1920.67 -438.141 1652.72 -481.36C1215.64 -551.773 868.63 -257.801 499.446 -86.1249C410.529 -44.1569 324.065 -0.887973 226.536 8.97803C149.985 17.642 132.712 -77.461 94.412 -133.05C67.226 -172.564 31.4289 -218.287 -16.7351 -202.211C-100.746 -175.068 -116.767 -77.4609 -161.226 -5.84595C-176.045 18.8441 -188.411 50.996 -220.504 53.45C-257.553 57.156 -284.739 29.962 -305.716 1.56604C-477.343 -234.363 -657.631 -476.452 -962.633 -509.806C-1171.31 -533.243 -1346.64 -415.905 -1534.34 -350.45C-1549.16 -345.492 -1565.23 -344.24 -1580.4 -339.833L-1580 -373.637ZM-1580.85 -301.37C-1554.21 -307.079 -1528.28 -315.743 -1502.35 -325.609C-1352.95 -382.451 -1218.37 -476.302 -1055.36 -487.419C-712.103 -512.109 -487.356 -231.758 -314.478 37.525C-292.249 70.878 -265.113 98.022 -226.812 110.392C-187.31 122.712 -165.08 84.45 -146.556 54.802C-107.054 -9.451 -99.644 -104.554 -21.842 -121.832C72.032 -142.865 93.01 -15.611 132.512 52.298C154.742 91.812 196.697 110.342 234.997 80.694C258.428 64.618 280.658 51.046 304.139 39.928C383.193 4.12104 459.744 -27.981 536.295 -68.746C769.7 -193.497 996.9 -304.676 1233.97 -414.602C1316.73 -452.864 1404.39 -466.486 1494.51 -472.646C1832.86 -493.629 2110.67 -242.926 2239.09 54.752C2252.71 86.854 2274.89 122.661 2313.19 126.367C2342.83 130.073 2367.51 111.544 2390.99 93.014C2572.53 -55.225 2729.34 -254.094 2963.95 -293.608C2962.7 -282.49 2968.91 -263.96 2960.24 -262.708C2733.04 -220.741 2582.4 -45.3089 2419.43 101.628C2383.58 132.477 2344.08 181.907 2297.17 163.377C2215.66 128.771 2207 21.299 2163.79 -54.0229C2088.44 -183.731 1994.62 -294.86 1862.5 -368.979C1620.53 -506.049 1340.21 -466.536 1105.6 -319.549C1003.11 -255.296 894.47 -221.993 788.28 -168.857C632.722 -89.83 484.527 -10.7529 327.72 64.5681C296.879 79.3921 273.398 101.628 247.464 123.863C227.688 142.393 212.868 164.629 188.186 175.747C168.409 184.411 151.137 168.335 140.022 153.511C88.154 84.35 79.542 -12.005 1.73999 -52.771C-25.446 -67.594 -51.3811 -42.905 -68.6531 -19.417C-113.112 39.878 -115.615 133.729 -190.915 152.259C-256.351 168.335 -302.011 100.426 -336.607 47.29C-463.825 -144.167 -579.878 -333.171 -792.258 -423.316C-941.655 -487.52 -1109.58 -482.612 -1256.52 -412.199C-1365.21 -361.567 -1463.99 -291.154 -1580.95 -267.115L-1580.85 -301.37ZM-1580.95 -228.253C-1466.35 -254.095 -1370.07 -322.054 -1266.34 -380.097C-1084.85 -481.36 -871.214 -468.99 -694.631 -349.198C-531.665 -238.019 -451.409 -83.621 -347.673 76.937C-308.17 137.485 -260.007 197.982 -185.909 206.646C-160.025 209.15 -138.997 186.914 -121.724 167.132C-85.927 120.157 -72.3091 18.894 -4.41907 37.424C59.7649 54.702 70.88 134.981 105.476 190.57C125.252 221.42 143.726 290.631 185.731 267.143C219.025 248.613 230.14 209.1 253.621 176.998C279.555 141.191 310.396 110.291 348.697 89.307C457.34 31.264 562.329 -18.165 670.972 -76.209C831.48 -162.698 1000.66 -202.211 1155.01 -304.726C1400.74 -468.99 1702.03 -478.856 1936.64 -303.474C2099.61 -181.227 2167.55 -4.59396 2240.39 172.04C2250.26 195.528 2272.49 217.764 2300.87 214.058C2346.53 209.15 2377.42 175.796 2409.52 146.149C2571.28 -8.24995 2734.3 -196.001 2963.95 -221.943C2963.95 -210.825 2965.2 -192.295 2963.95 -192.295C2730.59 -160.194 2570.08 20.146 2409.47 174.444C2369.96 212.706 2320.55 274.455 2262.52 249.765C2237.84 239.899 2224.22 213.958 2218.06 189.268C2157.58 -41.703 2035.32 -255.347 1813.08 -355.408C1655.02 -427.023 1472.28 -438.14 1316.67 -355.408C1245.03 -317.096 1188.25 -260.305 1110.45 -234.363C848.66 -149.126 616.55 -23.1229 373.279 104.081C283.11 151.057 244.86 242.453 207.811 332.598C202.854 344.968 195.444 358.54 181.876 363.498C165.855 367.204 154.741 353.632 146.079 342.514C91.758 268.445 76.938 180.704 10.25 120.207C-14.433 97.971 -45.3241 120.207 -62.5961 144.897C-92.2351 188.116 -116.918 243.705 -171.24 243.705C-270.02 241.252 -331.752 149.855 -378.663 68.324C-488.558 -121.882 -609.568 -312.088 -820.697 -393.619C-957.728 -446.704 -1109.63 -436.838 -1240.5 -367.677C-1355.3 -307.18 -1454.08 -218.237 -1581 -193.547L-1580.95 -228.253ZM-1580.9 -154.534C-1539.34 -160.193 -1499.84 -172.563 -1462.79 -197.253C-1270.14 -325.709 -1067.67 -471.444 -831.81 -380.047C-619.43 -296.062 -498.42 -103.352 -393.482 89.308C-349.023 172.041 -284.788 241.202 -198.374 278.261C-137.894 304.203 -86.026 262.236 -45.272 220.218C-11.928 184.411 30.0769 220.218 51.0549 254.824C94.3119 325.237 111.585 404.264 173.316 459.853C189.388 474.677 205.459 451.24 211.617 435.164C249.917 321.531 269.643 185.663 388.2 123.913C648.744 -13.207 899.37 -137.958 1183.4 -221.943C1246.38 -240.472 1284.63 -292.306 1341.46 -326.911C1438.99 -388.661 1548.88 -398.577 1658.78 -382.501C1965.03 -338.029 2155.18 -67.5439 2202.09 226.428C2208.3 262.236 2230.48 306.707 2272.49 303.001C2319.4 298.043 2352.74 263.488 2384.83 232.588C2554.01 70.778 2719.48 -135.504 2963.95 -150.327C2963.95 -139.21 2963.95 -120.68 2963.95 -120.68C2717.02 -100.898 2552.76 100.426 2384.88 260.884C2346.58 299.195 2305.88 343.667 2249.06 342.415C2203.4 341.213 2188.58 286.875 2183.62 248.564C2157.69 29.962 2058.9 -177.521 1862.6 -292.406C1708.24 -381.299 1518.09 -406.039 1363.74 -298.566C1318.03 -267.666 1289.64 -220.741 1237.77 -205.917C925.36 -119.428 647.542 -8.24896 369.725 165.881C248.716 243.656 259.83 396.852 216.623 520.351C211.717 532.67 205.509 546.292 191.941 548.746C168.46 553.704 158.597 529.015 146.231 512.939C89.456 437.568 75.838 288.127 -32.806 288.127C-122.925 356.036 -231.618 304.153 -306.918 234.992C-392.13 157.167 -435.337 55.904 -490.91 -42.905C-566.26 -178.773 -673.651 -288.7 -814.437 -352.903C-1039.18 -455.418 -1249.11 -320.751 -1428.15 -182.429C-1473.86 -147.823 -1524.47 -125.588 -1580.65 -119.879L-1580.9 -154.534ZM-1580.5 -81.067C-1510.96 -84.823 -1451.68 -118.177 -1397.36 -161.396C-1280.05 -252.793 -1170.16 -357.762 -1018.26 -366.426C-829.357 -377.544 -654.026 -268.869 -557.699 -107.059C-434.236 104.131 -302.112 394.397 -19.338 364.749C80.694 404.263 93.01 525.308 148.583 610.545C158.446 624.116 169.561 637.738 185.632 636.486C212.768 635.284 221.429 604.385 228.839 582.149C267.14 462.356 257.277 335.102 336.281 226.427C362.215 190.62 396.761 167.132 435.061 148.602C558.524 89.3071 674.577 23.852 800.54 -30.486C926.51 -84.873 1051.22 -121.883 1189.51 -149.076C1280.88 -167.606 1337.7 -221.944 1409.3 -276.281C1555.04 -386.208 1746.39 -350.4 1894.59 -250.339C2083.54 -121.883 2155.13 88.105 2167.5 299.294C2169.95 335.102 2183.57 385.733 2226.78 386.985C2289.76 389.489 2337.92 338.858 2381.13 296.84C2537.94 142.442 2688.59 -37.898 2912.53 -77.662C2946.18 -79.414 2963.95 -79.515 2963.95 -79.515V-45.9109C2963.95 -45.9109 2946.18 -45.9109 2912.63 -44.6089C2687.38 -10.7539 2535.48 170.838 2379.98 325.186C2336.77 369.657 2291.06 412.877 2226.88 426.449C2182.42 435.062 2152.78 395.549 2152.78 356.035C2153.98 99.123 2050.29 -183.732 1792.2 -282.541C1672.44 -329.466 1524.25 -330.718 1423.02 -241.775C1378.56 -202.262 1342.71 -156.538 1282.23 -145.421C969.82 -87.377 703.12 23.801 429.003 174.494C401.817 189.317 378.387 206.645 358.611 231.335C262.283 344.968 282.059 495.66 240.054 629.074C230.191 657.47 219.076 693.278 185.732 700.689C162.251 705.647 142.525 688.37 130.159 668.588C80.7439 582.149 73.3339 456.146 -32.8561 426.499C-211.893 378.371 -371.153 272.151 -456.365 109.088C-542.779 -56.428 -631.696 -230.607 -810.733 -309.634C-945.31 -370.182 -1102.17 -361.518 -1225.63 -270.121C-1341.73 -183.682 -1431.85 -56.428 -1580.25 -46.812L-1580.5 -81.067ZM-1580.2 -8.49896C-1496.14 -8.29896 -1422.04 -53.9729 -1364.01 -113.268C-1241.75 -239.27 -1094.81 -365.273 -904.656 -319.549C-765.122 -286.196 -655.227 -201.009 -582.381 -78.712C-525.606 18.844 -492.262 118.905 -418.164 206.596C-307.017 339.961 -163.829 402.962 -19.338 498.065C43.645 540.032 52.307 616.655 80.694 680.859C100.47 724.078 154.792 782.118 197.999 745.062C290.571 666.035 272.047 537.578 295.528 423.946C315.304 325.137 357.309 234.992 447.428 186.814C726.45 37.374 1001.81 -67.594 1317.93 -120.73C1350.02 -125.688 1379.66 -138.058 1400.64 -162.747C1516.74 -302.322 1714.3 -312.188 1863.7 -224.497C2084.74 -93.586 2135.36 159.621 2129.2 391.844C2127.95 430.106 2152.63 477.031 2197.09 467.165C2367.51 431.358 2445.32 269.547 2572.48 164.579C2673.72 80.594 2782.41 4.02104 2912.68 -7.34796C2946.13 -8.14896 2963.9 -8.14899 2963.9 -8.14899V25.455C2963.9 25.455 2946.13 25.455 2912.73 25.906C2658.9 48.492 2511.95 273.253 2325.51 428.904C2274.89 470.871 2211.91 525.208 2144.02 496.813C2114.38 484.443 2109.42 446.181 2106.97 416.534C2102.06 297.993 2118.08 176.949 2074.88 62.064C2020.55 -83.67 1909.41 -212.127 1748.9 -241.774C1662.48 -257.8 1577.27 -252.892 1504.42 -199.757C1452.55 -161.445 1414.25 -110.814 1350.07 -99.696C1009.27 -41.653 704.27 38.626 412.883 241.202C290.621 325.187 306.693 477.081 280.758 610.495C265.939 682.111 252.371 774.758 178.273 789.588C116.542 800.698 56.012 745.112 31.329 685.817C7.89798 627.773 -1.96508 563.57 -55.0851 525.258C-272.372 365.952 -483.551 217.714 -584.784 -34.241C-660.084 -219.539 -873.715 -356.609 -1078.69 -294.86C-1216.97 -252.842 -1292.32 -129.344 -1400.96 -40.4009C-1451.63 1.56706 -1513.36 28.76 -1580.05 25.355L-1580.2 -8.49896ZM-1580.1 63.316C-1512.21 65.821 -1444.32 43.635 -1394.9 -2.08899C-1262.78 -123.133 -1152.88 -304.725 -952.87 -288.649C-735.583 -271.371 -621.983 -73.754 -533.066 102.88C-450.357 270.9 -298.457 374.617 -152.764 493.207C-99.644 536.477 -70.005 593.268 -45.322 656.27C-9.52502 746.465 88.0039 829.198 188.036 815.628C276.953 803.308 278.155 688.421 294.226 611.848C320.16 480.938 309.045 335.203 428.803 253.672C727.6 51.097 1040.01 -20.518 1384.51 -77.36C1448.7 -88.477 1487 -140.361 1541.32 -172.462C1715.45 -272.523 1924.13 -178.672 2021.66 -11.904C2109.32 138.788 2080.93 303.052 2083.39 462.408C2083.39 494.51 2099.46 531.569 2135.26 540.233C2193.28 555.057 2241.45 520.451 2285.9 488.35C2402.01 405.567 2478.56 305.506 2583.5 215.361C2679.82 133.83 2788.52 72.081 2912.73 63.567C2946.08 63.367 2963.85 63.367 2963.85 63.367V96.971C2963.85 96.971 2946.08 96.971 2912.78 97.021C2681.08 109.09 2530.43 299.296 2366.21 446.282C2293.36 510.485 2189.63 626.572 2094.55 554.957C2027.86 504.275 2062.46 405.466 2068.62 330.145C2082.19 181.957 2051.29 28.7611 1942.65 -79.9139C1813.03 -210.824 1615.47 -191.042 1463.57 -86.074C1356.13 -12.005 1227.71 -24.3239 1100.54 0.365051C867.18 43.5851 670.873 137.486 468.356 246.16C315.254 328.943 330.073 517.897 296.729 672.295C284.413 729.137 270.845 784.678 228.84 826.698C199.2 855.088 155.993 846.478 122.649 830.398C28.8259 784.728 -69.9551 730.389 -119.37 634.034C-141.549 590.814 -151.462 543.889 -187.26 509.283C-366.296 337.607 -546.584 177.049 -645.364 -55.174C-712.002 -209.522 -897.247 -308.381 -1065.17 -255.246C-1198.49 -212.026 -1266.43 -87.276 -1361.51 7.82703C-1407.17 54.753 -1465.2 85.602 -1529.38 95.668C-1562.32 96.92 -1580.05 96.92 -1580.05 96.92L-1580.1 63.316ZM-1580.05 168.335C-1580.05 168.335 -1580.03 168.335 -1580 168.335V168.335H-1580.05ZM-1580 168.335V134.681C-1580 134.681 -1562.23 134.681 -1529.08 134.13C-1479.92 128.771 -1434.26 112.695 -1393.5 84.3C-1313.25 25.004 -1272.49 -54.073 -1210.76 -129.394C-1109.53 -251.64 -941.606 -282.54 -804.525 -201.009C-681.062 -128.142 -650.171 6.47501 -577.325 121.359C-525.457 204.092 -466.179 269.598 -398.289 337.507C-320.486 417.836 -256.301 500.569 -203.181 599.378C-141.45 713.01 -19.239 771.054 91.908 837.758C132.662 861.248 180.825 883.488 224.032 856.288C268.441 827.898 282.059 778.468 295.627 731.54C343.791 572.234 310.447 369.658 470.959 270.85C754.93 96.72 1053.78 18.895 1376.05 -21.871C1460.01 -31.787 1526.7 -78.712 1602 -110.814C1692.12 -151.579 1799.56 -135.503 1883.52 -84.8719C2071.22 25.0551 2067.52 254.774 2035.42 448.685C2026.76 503.073 2028.01 569.73 2082.34 600.63C2136.66 632.731 2197.14 599.428 2246.55 568.528C2363.86 494.409 2445.36 395.6 2547.85 304.203C2651.59 211.604 2773.8 137.485 2912.93 134.731C2946.18 134.731 2963.95 134.731 2963.95 134.731V168.335C2963.95 168.335 2946.23 168.335 2912.93 168.335C2755.27 168.335 2623.15 259.732 2509.65 364.701C2412.12 456.097 2325.71 552.452 2207.15 615.453C2160.19 640.193 2098.46 662.429 2055.25 624.117C1971.29 548.796 2018.2 428.954 2030.57 331.397C2045.39 207.898 2025.66 73.232 1929.33 -13.207C1842.87 -90.982 1712 -114.47 1605.81 -73.704C1540.37 -50.267 1482.34 -14.459 1411.95 -5.79498C1088.42 33.718 787.13 115.25 498.194 273.354C394.457 328.943 364.818 440.122 342.589 550.048C317.907 669.891 327.769 818.078 211.716 884.788C177.121 904.568 137.619 887.288 104.275 867.508C1.7889 804.508 -85.8761 741.506 -184.657 669.891C-258.755 616.756 -300.76 545.141 -336.557 463.609C-341.514 452.492 -347.672 442.576 -355.082 432.71C-485.955 269.648 -615.626 123.913 -703.291 -63.838C-750.253 -163.899 -858.897 -225.648 -968.792 -228.102C-1063.87 -229.354 -1146.63 -175.017 -1204.65 -100.898C-1294.82 13.9871 -1370.12 162.175 -1529.03 168.135C-1561.26 168.329 -1578.95 168.335 -1580 168.335ZM-1580.2 239.75V206.246C-1580.2 206.246 -1562.47 206.246 -1529.18 206.146C-1370.32 205.495 -1285.11 65.9201 -1207.31 -57.5779C-1129.5 -181.127 -982.559 -246.582 -851.686 -179.875C-799.818 -152.681 -760.316 -111.916 -730.677 -61.284C-688.671 14.037 -659.082 88.156 -605.962 158.569C-519.548 273.454 -440.494 378.423 -375.057 504.425C-344.167 566.174 -297.255 611.898 -237.976 651.411C-98.442 746.514 17.611 852.738 169.511 910.778C206.56 924.348 243.609 900.908 265.839 870.008C342.39 757.582 336.232 630.378 368.324 505.627C388.1 422.894 422.696 343.817 497.995 300.598C807.95 120.258 1135.14 54.802 1484.6 4.17102C1535.26 -3.24098 1578.47 -30.4349 1629.09 -41.5519C1738.98 -66.2419 1856.29 -34.141 1932.84 43.685C2045.24 154.813 2014.35 317.875 1988.41 463.61C1973.59 541.385 1979.75 662.429 2068.67 667.387C2290.96 682.211 2415.63 454.946 2586.05 327.741C2684.83 253.622 2793.52 204.243 2912.88 206.196C2946.13 206.196 2963.9 206.196 2963.9 206.196V239.8C2963.9 239.8 2946.18 239.8 2912.88 239.8C2756.48 230.134 2623.15 319.077 2508.3 421.592C2411.97 508.031 2328.01 596.974 2215.66 659.975C2160.14 690.875 2095.9 721.724 2034.17 697.035C1966.23 668.639 1955.12 584.654 1960.07 517.947C1972.44 378.373 2037.88 223.974 1939.1 104.182C1871.16 21.449 1757.56 -20.569 1652.62 -13.157C1593.34 -8.19898 1540.22 20.197 1479.74 28.861C1257.5 57.256 1041.41 89.358 835.19 170.889C703.07 224.024 557.323 259.832 456.09 366.053C367.172 461.156 368.424 593.318 338.785 718.068C316.556 808.268 273.348 968.818 162.202 920.648C-16.8351 841.568 -171.188 727.934 -327.995 600.73C-378.612 561.166 -419.366 515.493 -447.753 459.904C-515.693 328.993 -593.496 219.066 -676.205 93.064C-704.592 49.794 -724.368 7.82704 -746.598 -36.645C-798.466 -144.117 -923.181 -212.076 -1039.23 -170.059C-1162.7 -123.134 -1212.11 0.415031 -1287.41 105.384C-1345.44 188.117 -1433.1 236.294 -1529.03 239.7C-1562.27 239.75 -1580.05 239.75 -1580.05 239.75H-1580.2ZM-1580.1 311.163V277.559C-1580.1 277.559 -1562.38 277.559 -1529.08 277.559C-1364.06 288.176 -1267.74 142.442 -1193.64 12.733C-1139.27 -82.369 -1054.1 -172.514 -935.548 -155.237C-883.679 -146.573 -840.472 -118.177 -809.581 -73.706C-745.397 26.355 -698.485 116.5 -631.797 216.561C-578.676 293.134 -549.087 368.455 -499.672 446.28C-382.367 630.326 -199.576 711.857 -21.791 827.948C20.214 856.338 54.7599 883.538 96.7649 911.928C143.677 942.828 205.408 976.178 251.119 931.708C353.604 832.898 352.402 684.663 388.2 552.501C410.429 469.768 442.522 384.531 520.324 340.059C838.89 154.762 1179.69 81.895 1537.77 42.381C1559.95 39.927 1579.72 33.767 1601.95 28.809C1735.28 1.66602 1866.2 72.079 1934.09 177.047C2004.48 285.722 1939.05 410.473 1931.64 529.063C1927.93 597.023 1932.89 678.504 1997.07 720.521C2046.49 752.623 2103.26 735.345 2151.43 715.563C2305.78 655.066 2411.97 531.567 2540.39 424.095C2647.83 332.698 2772.55 268.444 2912.88 277.609C2946.13 277.609 2963.9 277.609 2963.9 277.609V311.213C2963.9 311.213 2946.18 311.213 2912.88 311.213C2765.09 299.294 2632.96 368.505 2520.61 466.062C2394.65 573.535 2283.5 692.125 2126.69 746.463C2071.12 766.245 1999.53 779.818 1957.52 731.639C1874.76 635.284 1908.11 505.576 1927.88 389.489C1941.45 316.622 1951.36 228.931 1880.97 180.754C1837.71 151.106 1806.87 116.5 1762.41 88.105C1722.91 63.365 1680.96 49.793 1635.25 53.499C1373.5 76.987 1115.41 107.886 870.94 205.443C693.1 277.108 465.902 325.286 405.423 540.181C363.417 684.663 372.079 855.138 243.659 957.648C210.315 983.598 168.36 971.278 135.016 947.788C-8.22301 847.728 -136.643 771.152 -282.335 678.504C-408.302 597.023 -508.334 500.668 -579.928 372.211C-639.156 264.739 -694.73 168.384 -761.418 63.415C-774.986 41.179 -786.1 22.6491 -798.466 0.414062C-824.401 -42.8059 -850.335 -83.571 -894.794 -108.261C-987.366 -162.648 -1089.85 -102.101 -1142.97 -18.116C-1238.05 132.526 -1328.17 321.53 -1529.03 311.163C-1562.27 311.163 -1580.1 311.163 -1580.1 311.163ZM-1580.15 382.579V348.975C-1580.15 348.975 -1562.42 348.975 -1529.13 348.975C-1315.95 368.456 -1224.58 160.973 -1120.84 5.32306C-1078.89 -58.9299 -1005.99 -121.932 -930.691 -79.9139C-828.206 -23.0729 -786.2 88.106 -728.174 185.663C-618.278 364.751 -525.656 541.384 -341.663 657.471C-229.315 729.136 -128.031 787.178 -15.6831 856.338C60.8679 904.518 117.693 998.418 207.812 982.348C370.827 953.948 364.619 736.548 406.624 600.68C433.81 512.989 468.406 422.844 551.115 377.12C898.12 185.663 1278.42 68.324 1669.84 93.014C1710.6 95.468 1746.39 120.157 1773.58 153.511C1805.67 193.024 1841.47 222.672 1872.36 262.186C1929.18 332.599 1885.98 427.702 1881.02 510.435C1874.81 608.042 1862.5 768.6 1985.96 783.428C2226.73 813.068 2379.83 596.924 2563.82 462.307C2628.01 415.382 2690.99 378.322 2765.09 361.646C2830.52 349.576 2879.59 348.975 2912.83 348.975C2946.08 348.975 2963.85 348.975 2963.85 348.975V382.579C2963.85 382.579 2946.13 382.579 2912.83 382.579C2879.54 382.579 2830.62 382.779 2766.49 389.891C2678.67 411.676 2603.32 457.349 2530.48 514.191C2389.69 624.117 2269.93 747.616 2098.31 800.748C2019.3 825.488 1903.25 829.198 1872.36 736.548C1834.11 624.117 1860.04 508.031 1862.5 394.398C1862.5 366.002 1862.5 332.649 1841.52 312.867C1798.31 274.556 1779.79 227.63 1746.44 179.453C1715.6 135.031 1667.44 113.997 1615.57 111.544C1451.35 104.182 1289.59 122.661 1129.08 168.385C910.54 231.386 689.5 288.227 516.619 441.374C407.976 537.729 405.523 690.875 363.517 823.038C333.878 914.438 263.485 1063.88 151.137 988.558C-5.67004 883.538 -140.247 788.428 -299.558 698.287C-436.639 620.461 -545.282 524.107 -634.199 389.49C-730.527 245.008 -792.258 99.224 -913.268 -20.569C-942.907 -50.216 -987.366 -61.3339 -1024.42 -44.0569C-1056.51 -28.0309 -1081.19 -2.08896 -1100.97 28.811C-1209.61 191.823 -1308.39 401.81 -1529.03 382.579C-1562.27 382.579 -1580.15 382.579 -1580.15 382.579ZM-1580 453.993V420.239C-1580 420.239 -1562.27 420.239 -1528.98 420.239C-1402.21 427.601 -1287.36 368.305 -1212.06 259.631C-1151.53 171.94 -1120.69 73.131 -1031.78 21.247C-925.585 -40.502 -855.242 104.03 -802.122 183.057C-695.932 339.91 -614.424 489.4 -465.027 605.486C-342.815 699.387 -216.849 761.137 -84.7251 837.708C-2.0161 885.888 60.9679 946.438 137.519 1004.48C178.272 1036.58 236.299 1041.54 274.599 1004.48C384.545 895.808 394.407 738.951 445.024 601.831C475.915 520.3 526.532 443.726 604.335 404.213C927.86 241.201 1273.57 73.231 1648.96 155.964C1725.51 173.292 1736.63 257.277 1760.11 322.732C1767.52 340.01 1786.04 351.128 1799.61 365.952C1811.93 382.027 1818.14 400.557 1820.59 419.087C1832.96 540.131 1794.66 667.336 1850.23 778.518C1888.48 853.838 1986.06 848.928 2061.36 832.848C2272.54 785.928 2400.96 632.78 2576.29 511.736C2638.02 469.768 2698.55 441.323 2767.24 425.748C2830.87 420.389 2879.74 420.389 2912.98 420.389C2946.23 420.389 2964 420.389 2964 420.389V453.993C2964 453.993 2946.28 453.993 2912.98 453.993C2879.69 453.993 2830.87 453.993 2767.64 457.899C2694.84 472.222 2630.61 503.122 2565.17 546.341C2419.48 646.402 2305.88 762.489 2146.57 824.238C2040.38 866.258 1870.01 905.768 1813.18 781.018C1769.97 684.664 1798.36 574.737 1784.79 468.516C1781.09 432.709 1756.41 408.019 1732.92 380.825C1726.72 373.413 1723.01 364.75 1720.56 354.884C1705.74 280.765 1699.58 188.116 1610.66 170.838C1237.72 101.677 899.42 264.689 587.012 448.734C517.87 489.5 478.368 563.619 451.183 638.94C404.221 767.397 384.495 909.478 288.167 1014.45C252.32 1052.71 195.545 1058.92 151.087 1028.02C60.9179 965.018 -5.771 893.398 -99.594 840.268C-232.97 764.943 -362.642 705.648 -486.105 610.545C-628.092 500.618 -712.053 364.75 -814.538 217.763C-858.997 153.51 -897.247 79.4411 -978.755 63.3651C-1030.62 53.4991 -1065.17 97.971 -1091.1 137.484C-1196.04 299.294 -1319.5 477.13 -1529.03 453.993C-1562.27 453.993 -1580 453.993 -1580 453.993ZM-1580.15 525.408V491.754C-1580.15 491.754 -1562.42 491.754 -1529.13 491.754C-1495.84 491.754 -1447.32 490.502 -1388.39 477.582C-1234.39 440.071 -1160.29 293.085 -1066.47 174.494C-1005.94 96.669 -915.821 139.889 -867.658 206.596C-721.965 401.76 -593.546 589.461 -377.461 704.346C-203.331 798.198 -30.5031 876.018 113.988 1018.05C142.426 1046.5 179.424 1073.64 221.43 1067.48C327.62 1051.41 363.417 935.318 398.013 850.078C449.831 719.17 470.859 569.68 594.322 483.241C815.31 325.187 1047.47 231.286 1311.72 188.066C1417.91 172.04 1531.51 151.057 1624.13 218.966C1684.66 263.437 1663.63 342.514 1683.41 406.718C1689.62 428.953 1706.89 444.979 1721.71 464.761C1741.44 491.905 1743.94 522.804 1750.1 554.906C1767.37 651.261 1724.16 764.893 1801.97 835.308C1900.75 924.198 2046.49 885.938 2158.84 841.468C2293.46 785.878 2397.15 695.732 2519.41 608.041C2597.22 552.502 2676.27 509.232 2767.99 494.359C2830.82 491.804 2879.69 491.804 2912.93 491.804C2946.18 491.804 2963.95 491.804 2963.95 491.804V525.408C2963.95 525.408 2946.18 525.358 2912.88 525.358C2879.59 525.358 2830.77 525.358 2768.19 527.061C2671.26 540.082 2589.76 584.554 2507.05 643.849C2336.67 764.893 2176.11 892.098 1968.69 904.468C1885.98 909.428 1784.74 897.058 1742.74 818.028C1700.73 740.204 1730.37 652.513 1711.85 566.074C1700.78 516.694 1666.19 484.593 1651.37 438.869C1630.39 374.666 1655.07 298.093 1603.2 246.21C1541.42 182.006 1445.14 190.62 1363.64 199.284C1083.37 231.386 826.53 338.859 599.328 514.24C478.319 609.343 453.636 763.742 394.358 898.358C362.266 972.428 323.965 1057.67 240.004 1083.61C199.25 1095.98 158.497 1076.2 130.109 1047.8C-26.6981 887.238 -219.352 804.458 -413.208 699.488C-602.157 596.974 -724.369 433.961 -861.449 272.151C-897.247 228.932 -949.115 175.796 -1007.14 201.738C-1093.56 241.252 -1131.86 335.153 -1199.75 400.608C-1254.12 452.441 -1313.35 499.417 -1387.99 513.589C-1447.12 524.757 -1495.74 525.408 -1529.03 525.408C-1562.27 525.408 -1580.15 525.408 -1580.15 525.408ZM-1580 596.823V563.319C-1580 563.319 -1562.28 563.319 -1528.98 563.319C-1495.69 563.319 -1446.92 563.068 -1387.44 553.954C-1268.89 532.82 -1182.42 442.625 -1102.17 356.186C-1068.82 319.126 -1035.48 269.747 -983.612 272.201C-860.099 278.411 -795.914 410.573 -714.406 493.306C-553.894 657.57 -356.333 753.925 -153.816 847.778C-31.555 904.618 47.4489 1004.68 153.64 1087.41C194.393 1118.31 247.464 1115.86 285.764 1084.96C419.14 973.778 438.866 800.898 524.079 656.368C546.308 619.309 567.286 584.753 598.176 555.106C725.39 434.061 884.65 369.808 1042.71 305.605C1198.32 242.604 1379.81 175.946 1541.57 247.561C1627.99 285.823 1589.69 399.456 1620.58 473.575C1660.08 571.131 1681.06 669.94 1682.31 773.708C1684.76 867.558 1786.04 910.778 1868.75 923.148C2045.34 946.588 2203.35 873.718 2351.54 778.618C2488.57 690.924 2607.13 580.997 2768.44 564.32C2830.82 563.319 2879.69 563.319 2912.93 563.319C2946.18 563.319 2963.95 563.319 2963.95 563.319V596.923C2963.95 596.923 2946.18 596.923 2912.93 596.923C2879.69 596.923 2830.87 596.923 2768.54 597.474C2576.24 613.099 2439.21 758.833 2272.49 846.528C2093.45 941.628 1856.39 1010.79 1685.96 865.058C1621.73 809.468 1647.66 722.975 1630.39 647.654C1606.91 548.846 1574.82 458.651 1571.11 357.388C1568.61 307.958 1536.51 263.487 1485.9 253.621C1193.26 200.536 942.63 358.59 703.06 506.828C526.532 615.503 482.073 815.578 385.746 986.048C351.2 1047.8 307.943 1113.25 232.644 1125.62C191.89 1133.04 156.093 1112.05 127.705 1086.11C52.356 1016.95 -10.6271 941.578 -100.746 890.948C-221.756 822.988 -342.766 774.808 -465.027 710.606C-631.697 622.915 -745.297 485.794 -889.788 366.002C-929.34 331.396 -986.115 319.026 -1030.57 353.632C-1145.43 445.029 -1236.8 571.031 -1387.04 589.461C-1446.97 596.773 -1495.74 596.823 -1529.03 596.823C-1562.28 596.823 -1580 596.823 -1580 596.823ZM-1580.2 668.239V634.585C-1580.2 634.585 -1562.47 634.585 -1529.18 634.585C-1495.89 634.585 -1447.07 634.585 -1386.64 629.226C-1293.72 620.412 -1212.21 575.94 -1144.32 512.939C-1062.82 438.87 -949.215 357.339 -850.435 452.442C-661.536 636.488 -439.292 756.28 -199.726 855.088C-109.607 892.148 -33.0561 947.738 37.3369 1015.65C89.2049 1066.28 132.462 1139.15 207.762 1146.56C300.384 1156.43 359.662 1068.73 402.869 995.868C495.492 836.558 546.108 662.379 700.46 549.999C927.66 385.735 1175.84 220.219 1466.02 283.22C1514.14 293.136 1538.87 343.767 1541.32 390.693C1547.53 483.342 1566.05 569.831 1583.33 663.681C1589.49 694.581 1588.28 724.179 1590.74 755.078C1604.3 911.928 1783.34 966.268 1916.72 966.268C2141.46 966.268 2327.91 839.068 2519.31 721.725C2597.12 673.547 2677.37 636.488 2768.49 634.885C2830.72 634.635 2879.59 634.635 2912.83 634.635C2946.08 634.635 2963.85 634.635 2963.85 634.635V668.239C2963.85 668.239 2946.08 668.239 2912.83 668.239C2879.59 668.239 2830.77 668.239 2768.59 668.289C2687.28 669.791 2611.98 696.985 2541.59 736.498C2336.62 851.388 2137.81 989.708 1899.49 982.298C1763.67 978.588 1590.79 934.118 1554.99 780.968C1536.47 699.439 1537.72 622.866 1526.6 541.335C1520.44 496.863 1517.99 454.846 1513.03 411.626C1510.58 379.525 1500.67 344.969 1475.99 325.187C1416.76 277.01 1340.16 286.926 1268.56 300.498C1050.02 342.515 866.03 442.576 701.81 584.604C561.078 706.901 503.001 874.868 401.768 1032.98C356.107 1102.19 291.873 1162.69 209.164 1166.39C179.525 1167.59 151.137 1150.32 131.361 1128.08C19.013 1009.49 -95.839 902.068 -250.193 845.228C-462.573 766.146 -651.522 662.429 -833.012 517.897C-898.448 466.014 -983.661 448.736 -1055.26 504.325C-1155.29 582.15 -1258.97 656.269 -1386.04 664.383C-1446.92 668.239 -1495.74 668.239 -1529.03 668.239C-1562.27 668.239 -1580.2 668.239 -1580.2 668.239ZM-1580 739.653V705.999C-1580 705.999 -1562.28 705.999 -1528.98 705.999C-1495.69 705.999 -1446.87 705.999 -1385.54 703.545C-1242.9 703.144 -1133.01 601.881 -1004.59 552.452C-866.257 499.367 -753.908 635.235 -636.603 695.732C-503.278 764.894 -369.902 816.728 -231.619 869.858C-85.927 924.248 20.264 1029.22 124.001 1142.85C227.737 1257.74 362.315 1135.44 427.751 1034.18C519.122 894.598 582.105 752.574 698.16 637.689C875.94 459.853 1115.51 316.573 1371.1 323.985C1426.62 325.237 1472.33 370.91 1479.74 426.499C1494.56 542.636 1483.44 651.311 1506.93 768.649C1542.72 937.868 1729.17 993.408 1879.82 1002.08C2015.65 1008.29 2147.77 969.978 2271.23 911.928C2435.45 836.558 2582.4 708.102 2768.69 706.049C2830.82 706.049 2879.69 706.049 2912.93 706.049C2946.18 706.049 2963.95 706.049 2963.95 706.049V739.653C2963.95 739.653 2946.23 739.653 2912.93 739.653C2879.64 739.653 2830.82 739.653 2768.69 739.653C2593.51 736.498 2450.27 847.678 2297.07 920.598C2203.24 965.068 2109.42 997.168 2005.68 1013.24C1793.3 1044.14 1504.37 981.138 1461.17 735.346C1440.19 611.797 1505.62 458.651 1396.98 374.666C1322.88 316.623 1222.9 353.632 1141.39 384.532C972.27 448.735 811.71 535.174 695.65 679.707C573.394 834.108 499.296 1005.78 357.308 1140.4C321.511 1175 279.556 1199.69 230.141 1207.11C185.682 1213.32 146.18 1191.08 117.792 1160.18C19.012 1052.76 -72.359 942.828 -213.144 893.398C-425.525 816.828 -628.042 741.456 -828.056 625.369C-970.094 543.838 -1096.01 664.883 -1225.68 709.354C-1277.55 726.632 -1330.62 737.75 -1385.29 738.15C-1446.92 739.653 -1495.74 739.653 -1529.03 739.653C-1562.28 739.653 -1580 739.653 -1580 739.653ZM-1580.1 811.068V777.368C-1580.1 777.368 -1562.37 777.368 -1529.08 777.368C-1495.84 777.368 -1447.02 777.368 -1385.09 776.658C-1246.76 779.668 -1124.5 715.464 -996.078 670.993C-942.957 653.715 -887.384 657.421 -836.767 678.405C-641.66 759.936 -449.005 832.798 -245.287 899.508C-156.419 929.158 -76.1131 974.828 -8.22412 1041.54C64.6219 1111.9 114.038 1244.07 227.638 1223.08C473.362 1176.16 557.323 914.288 698.11 729.036C832.69 552.402 1019.18 438.769 1234.02 388.138C1297 373.314 1377.25 379.474 1401.94 446.181C1435.28 535.124 1411.8 631.479 1420.46 725.33C1432.83 855.038 1541.47 943.978 1655.07 990.908C1869.91 1079.8 2105.77 1034.13 2310.74 937.768C2458.93 868.608 2600.92 772.255 2768.69 777.368C2830.82 777.368 2879.69 777.368 2912.93 777.368C2946.18 777.368 2963.95 777.368 2963.95 777.368V810.968C2963.95 810.968 2946.23 810.968 2912.93 810.968C2879.64 810.968 2830.82 810.968 2768.69 810.968C2681.18 806.858 2595.96 827.848 2515.71 864.908C2297.17 967.418 2073.67 1081.05 1822.99 1051.41C1631.59 1029.17 1409.35 924.198 1385.87 711.758C1374.75 611.747 1426.62 438.819 1294.5 423.996C1089.53 399.306 917.9 546.292 773.41 682.161C686.944 764.894 643.737 871.118 570.891 969.928C481.973 1089.77 393.106 1223.13 241.206 1246.62C106.628 1266.4 53.558 1113.26 -32.906 1035.43C-119.37 957.608 -224.309 919.338 -334.204 888.438C-493.514 842.768 -645.365 795.798 -797.265 735.296C-935.548 680.959 -1066.42 755.028 -1202.25 789.638C-1263.98 804.458 -1323.26 811.868 -1384.89 810.768C-1446.92 811.068 -1495.74 811.068 -1529.03 811.068C-1562.27 811.068 -1580.1 811.068 -1580.1 811.068ZM-1579.9 882.478V848.978C-1579.9 848.978 -1562.17 848.978 -1528.88 848.978C-1495.59 848.978 -1446.77 848.978 -1384.64 848.978C-1236.65 853.938 -1100.82 804.558 -953.872 778.618C-837.819 757.632 -732.83 805.808 -624.187 837.908C-504.429 872.518 -388.326 893.498 -268.568 929.308C-187.11 953.998 -111.761 988.548 -46.324 1045.4C51.204 1129.38 106.778 1307.27 259.88 1270.21C409.277 1233.15 508.057 1115.81 592.018 989.808C706.87 818.128 801.95 660.025 980.98 556.258C1079.76 499.467 1208.18 404.364 1313.12 488.349C1335.35 505.677 1341.51 537.778 1342.76 566.174C1348.97 674.849 1345.26 790.938 1424.27 879.878C1483.54 947.838 1556.39 993.508 1637.9 1026.87C1937.94 1146.66 2247.85 1018.2 2524.47 893.448C2601.02 858.848 2684.98 844.018 2768.79 848.928C2830.92 848.928 2879.79 848.928 2913.03 848.928C2946.28 848.928 2964.05 848.928 2964.05 848.928V882.528C2964.05 882.528 2893.06 882.528 2768.79 882.528C2737.7 882.528 2703.25 882.778 2664.9 885.188C2603.47 893.448 2541.74 908.278 2484.92 936.668C2139.16 1107.15 1660.08 1209.66 1382.26 861.348C1311.87 774.858 1322.98 668.639 1300.75 563.67C1288.39 511.786 1239.02 490.803 1189.61 500.669C1010.57 535.224 872.29 648.857 764.85 792.138C616.651 989.758 505.504 1229.39 253.622 1294.85C180.775 1314.63 116.591 1270.16 75.8369 1210.86C-20.4901 1070.04 -137.795 972.478 -306.969 937.868C-447.754 908.228 -576.174 888.438 -710.751 848.928C-847.832 808.158 -979.957 824.238 -1118.24 857.588C-1208.36 878.578 -1296.02 883.538 -1384.79 882.478C-1446.92 882.478 -1495.74 882.478 -1529.03 882.478C-1562.27 882.478 -1579.9 882.478 -1579.9 882.478ZM-1580 953.898V920.348C-1580 920.348 -1509.01 920.348 -1384.74 920.348C-1353.7 920.348 -1319.3 920.298 -1282.46 919.238C-1171.31 916.888 -1063.87 893.398 -951.519 879.828C-894.694 873.618 -841.624 872.418 -784.799 882.278C-647.768 903.268 -520.6 929.208 -383.519 950.188C-258.805 969.978 -132.838 997.118 -42.7201 1093.47C5.44391 1145.36 41.2409 1199.69 86.9519 1254.03C144.978 1323.19 240.054 1345.43 320.31 1305.92C435.161 1250.33 528.985 1172.5 606.788 1067.53C738.91 890.898 838.89 710.556 1034 598.176C1104.39 558.662 1234.02 505.527 1257.5 612.999C1297 801.958 1392.07 963.768 1567.41 1040.34C1795.86 1140.4 2050.24 1125.58 2279.9 1041.59C2407.06 995.918 2529.33 935.368 2665.2 921.798C2703.2 920.348 2737.65 920.298 2768.69 920.298C2892.96 920.298 2963.95 920.298 2963.95 920.298V953.898C2963.95 953.898 2892.96 953.898 2768.69 953.898C2737.65 953.898 2703.25 953.898 2665.46 954.648C2589.81 958.858 2516.96 978.588 2446.57 1005.78C2167.5 1115.71 1855.09 1186.12 1566.15 1060.12C1394.53 985.998 1280.93 834.058 1227.81 656.219C1206.83 584.554 1119.16 595.672 1063.59 625.319C978.38 670.993 907.99 727.834 843.8 800.698C724.04 936.568 649.945 1092.22 507.957 1208.31C416.587 1282.43 319.058 1365.21 194.343 1345.43C147.431 1338.02 111.634 1305.92 80.7429 1270.11C12.8539 1193.53 -34.108 1104.59 -124.227 1049C-192.117 1008.24 -265.013 992.158 -340.312 982.298C-529.262 960.108 -710.751 915.638 -898.449 921.798C-1026.87 926.758 -1154.04 951.448 -1281.96 953.748C-1319.35 953.898 -1353.75 953.898 -1384.79 953.898C-1509.06 953.898 -1580 953.898 -1580 953.898ZM-1580.1 1025.31V991.558C-1580.1 991.558 -1509.1 991.558 -1384.84 991.558C-1353.75 991.558 -1319.4 991.558 -1281.96 991.508C-1155.29 992.058 -1030.57 977.238 -903.405 969.818C-841.674 966.118 -782.395 968.618 -720.664 974.778C-593.496 988.398 -469.983 997.018 -342.815 1009.39C-232.92 1021.76 -123.025 1052.61 -46.4741 1141.55C23.9189 1223.08 68.377 1331.76 174.568 1362.66C325.216 1405.88 456.139 1289.79 564.783 1193.43C677.131 1093.37 748.78 969.868 847.56 856.238C911.74 782.118 982.13 717.918 1071.05 677.152C1115.51 657.421 1173.54 661.127 1195.77 708.052C1280.93 888.388 1420.46 1034.18 1611.86 1102.09C1902.05 1203.4 2198.39 1121.87 2477.46 1026.77C2539.19 1005.78 2600.92 994.658 2665.66 991.958C2703.25 991.708 2737.65 991.708 2768.69 991.708C2892.96 991.708 2963.95 991.708 2963.95 991.708V1025.31C2963.95 1025.31 2892.96 1025.31 2768.69 1025.31C2737.65 1025.31 2703.25 1025.31 2665.76 1025.36C2623.15 1025.56 2579.94 1028.02 2537.94 1040.39C2213.21 1130.53 1878.57 1240.46 1552.59 1098.43C1393.28 1029.27 1283.38 904.518 1174.74 767.397C1089.53 659.925 963.61 790.888 893.22 862.498C785.82 972.428 709.27 1097.18 594.422 1199.69C483.275 1298.5 356.107 1407.23 200.502 1391.15C70.8309 1376.33 21.466 1241.71 -60.042 1154.02C-113.112 1098.43 -179.8 1060.12 -256.351 1050.25C-468.732 1023.11 -676.205 1008.29 -887.334 1010.74C-1019.46 1013.19 -1150.33 1026.77 -1281.91 1025.31C-1319.35 1025.31 -1353.75 1025.31 -1384.79 1025.31C-1509.05 1025.31 -1580.1 1025.31 -1580.1 1025.31ZM-1580.05 1063.12C-1580.05 1063.12 -1469.1 1063.12 -1281.9 1063.12C-1244.46 1063.12 -1203.95 1063.12 -1161.05 1062.62C-887.333 1047.8 -614.423 1056.46 -340.311 1070.04C-285.99 1072.49 -231.668 1078.7 -179.8 1099.68C-68.653 1145.41 -15.583 1254.08 62.22 1339.32C109.132 1389.95 170.863 1425.81 240.004 1417.14C423.947 1393.71 569.69 1271.41 696.86 1142.95C804.25 1034.23 882.05 914.438 1014.18 826.748C1067.25 790.938 1133.93 787.228 1174.69 837.858C1348.77 1046.6 1589.54 1172.6 1855.04 1189.88C2063.71 1202.25 2258.82 1142.95 2461.34 1088.62C2529.28 1070.09 2597.17 1063.88 2665.76 1063.18C2703.21 1063.18 2737.6 1063.18 2768.64 1063.18C2892.91 1063.18 2963.9 1063.18 2963.9 1063.18V1096.78C2963.9 1096.78 2892.91 1096.78 2768.64 1096.78C2737.6 1096.78 2703.21 1096.78 2665.76 1096.78C2623.1 1095.98 2579.89 1097.23 2535.43 1104.64C2293.41 1146.66 2069.92 1229.39 1825.45 1207.16C1573.56 1183.67 1358.68 1061.42 1169.78 894.648C1085.82 820.538 986.99 898.358 922.81 961.358C726.5 1147.86 554.87 1364.01 279.507 1433.17C185.683 1456.61 98.017 1414.64 38.739 1340.52C-48.927 1229.34 -139.046 1103.34 -290.946 1100.89C-581.079 1095.98 -870.061 1087.31 -1160.7 1096.73C-1203.95 1096.73 -1244.46 1096.73 -1281.9 1096.73C-1469.1 1096.73 -1580.05 1096.73 -1580.05 1096.73V1063.12Z" fill="#A51757"/>
</g>
</g>
</g>
</g>
</g>
</g>
</svg>
